<?xml version="1.0" encoding="utf-8"?>
<!-- Generated by IcoMoon.io -->
<!DOCTYPE svg PUBLIC "-//W3C//DTD SVG 1.1//EN" "http://www.w3.org/Graphics/SVG/1.1/DTD/svg11.dtd">
<svg version="1.1" xmlns="http://www.w3.org/2000/svg" width="32" height="32" viewBox="0 0 32 32">
<path fill="rgb(202, 55, 54)" d="M31.559 16c0 8.38-6.794 15.174-15.174 15.174s-15.174-6.794-15.174-15.174c0-8.38 6.794-15.174 15.174-15.174s15.174 6.794 15.174 15.174z"></path>
<path fill="rgb(255, 255, 255)" d="M24.319 14.75c0.006 0.319 0.009 0.762 0.009 1.33s-0.003 1.011-0.009 1.33-0.031 0.723-0.075 1.21c-0.044 0.488-0.111 0.923-0.199 1.308-0.095 0.432-0.298 0.795-0.612 1.090s-0.68 0.467-1.099 0.514c-1.312 0.148-3.295 0.222-5.948 0.222s-4.636-0.074-5.948-0.222c-0.42-0.047-0.788-0.219-1.104-0.514s-0.522-0.659-0.616-1.090c-0.083-0.384-0.146-0.82-0.191-1.308s-0.070-0.891-0.075-1.21c-0.006-0.319-0.009-0.762-0.009-1.33s0.003-1.010 0.009-1.33 0.031-0.722 0.075-1.21c0.044-0.488 0.111-0.923 0.2-1.308 0.094-0.431 0.298-0.795 0.612-1.090s0.68-0.467 1.099-0.514c1.312-0.148 3.295-0.222 5.948-0.222s4.636 0.074 5.948 0.222c0.42 0.047 0.787 0.219 1.104 0.514s0.521 0.659 0.616 1.090c0.083 0.384 0.146 0.82 0.191 1.308s0.069 0.891 0.075 1.21zM19.79 16.079c0-0.218-0.089-0.378-0.266-0.479l-4.539-2.837c-0.183-0.118-0.375-0.124-0.576-0.018-0.195 0.106-0.292 0.272-0.292 0.496v5.673c0 0.225 0.097 0.39 0.292 0.496 0.094 0.047 0.186 0.071 0.275 0.071 0.118 0 0.219-0.030 0.301-0.089l4.539-2.837c0.177-0.1 0.266-0.26 0.266-0.479z"></path>
</svg>
