<?xml version="1.0" encoding="utf-8"?>
<!-- Generated by IcoMoon.io -->
<!DOCTYPE svg PUBLIC "-//W3C//DTD SVG 1.1//EN" "http://www.w3.org/Graphics/SVG/1.1/DTD/svg11.dtd">
<svg version="1.1" xmlns="http://www.w3.org/2000/svg" width="32" height="32" viewBox="0 0 32 32">
<path fill="rgb(89, 140, 201)" d="M31.269 15.893c0 8.373-6.788 15.161-15.161 15.161s-15.161-6.788-15.161-15.161c0-8.373 6.788-15.161 15.161-15.161s15.161 6.788 15.161 15.161z"></path>
<path fill="rgb(255, 255, 255)" d="M24.516 10.677c-0.619 0.275-1.284 0.46-1.981 0.543 0.712-0.427 1.26-1.103 1.517-1.909-0.666 0.395-1.404 0.683-2.19 0.838-0.63-0.671-1.527-1.090-2.519-1.090-1.905 0-3.45 1.545-3.45 3.45 0 0.271 0.031 0.534 0.089 0.786-2.867-0.143-5.409-1.517-7.111-3.605-0.297 0.51-0.467 1.103-0.467 1.735 0 1.196 0.609 2.253 1.534 2.871-0.565-0.017-1.097-0.174-1.562-0.432v0.044c0 1.671 1.189 3.066 2.767 3.383-0.289 0.078-0.595 0.122-0.909 0.122-0.222 0-0.439-0.022-0.649-0.063 0.439 1.371 1.713 2.368 3.222 2.397-1.18 0.925-2.668 1.477-4.285 1.477-0.278 0-0.552-0.017-0.822-0.048 1.527 0.978 3.34 1.549 5.289 1.549 6.345 0 9.816-5.256 9.816-9.816 0-0.149-0.004-0.298-0.009-0.447 0.672-0.486 1.257-1.093 1.72-1.785z"></path>
</svg>
