<?xml version="1.0" encoding="utf-8"?>
<!-- Generated by IcoMoon.io -->
<!DOCTYPE svg PUBLIC "-//W3C//DTD SVG 1.1//EN" "http://www.w3.org/Graphics/SVG/1.1/DTD/svg11.dtd">
<svg version="1.1" xmlns="http://www.w3.org/2000/svg" width="32" height="32" viewBox="0 0 32 32">
<path fill="rgb(255, 255, 255)" d="M30.992 15.899c0 8.373-6.788 15.161-15.161 15.161s-15.161-6.788-15.161-15.161c0-8.373 6.788-15.161 15.161-15.161s15.161 6.788 15.161 15.161z"></path>
<path fill="rgb(48, 48, 47)" d="M20.654 15.18l-5.875-5.875c-0.395-0.395-1.042-0.395-1.438 0s-0.395 1.042 0 1.438l5.156 5.156-5.156 5.156c-0.395 0.395-0.395 1.042 0 1.438s1.042 0.395 1.438 0l5.875-5.875c0.395-0.396 0.395-1.043 0-1.438z"></path>
</svg>
